<svg id="レイヤー_1" data-name="レイヤー 1" xmlns="http://www.w3.org/2000/svg" xmlns:xlink="http://www.w3.org/1999/xlink" viewBox="0 0 218.8 53.9"><defs><style>.cls-1{fill:url(#linear-gradient);}.cls-2{fill:#2e2624;}</style><linearGradient id="linear-gradient" x1="0.86" y1="6.94" x2="62.07" y2="67.74" gradientUnits="userSpaceOnUse"><stop offset="0" stop-color="#fc0"/><stop offset="1" stop-color="#fc72dc"/></linearGradient></defs><path class="cls-1" d="M31.7,56.7C17.2,56.7,5.3,44.5,5.3,29.5A27.2,27.2,0,0,1,23,3.9l3.5-1.2L24.8,6a25.6,25.6,0,0,0-2.5,10.9C22.3,30.2,32.8,41,45.7,41a25.4,25.4,0,0,0,7.7-1.3l3.4-1.3-1.6,3.4A26.3,26.3,0,0,1,31.7,56.7ZM20.8,8.2A24.3,24.3,0,0,0,8.3,29.5c0,13.3,10.5,24.1,23.4,24.1A23.2,23.2,0,0,0,50.8,43.5a29.4,29.4,0,0,1-5.1.5C31.2,44,19.4,31.8,19.4,16.9A28.3,28.3,0,0,1,20.8,8.2Z" transform="translate(-5.3 -2.7)"/><path class="cls-2" d="M64,41.3a1,1,0,0,1-.9-1V13.6a.9.9,0,0,1,.9-1h3.9c4.3,0,6.7.6,8.6,2.3A6.9,6.9,0,0,1,79,20.5a5.3,5.3,0,0,1-1,3.4,4.5,4.5,0,0,1-2.3,2,8.5,8.5,0,0,1,4,2.1,6.8,6.8,0,0,1,2.1,5.3,6.5,6.5,0,0,1-2.1,5.2c-2.4,2.3-6.1,2.8-8.7,2.8Zm3.9-4.2h2.9c.8,0,3.4,0,4.8-1.1a4.1,4.1,0,0,0,1.5-3.2,4.3,4.3,0,0,0-1.3-3c-1.2-1.1-3.1-1.2-4.9-1.2h-3Zm0-12.2h1.5a6,6,0,0,0,3.9-1.1,4,4,0,0,0,1.2-3.2,3.4,3.4,0,0,0-1.1-2.8,5.5,5.5,0,0,0-3.8-1H67.9Z" transform="translate(-5.3 -2.7)"/><path class="cls-2" d="M85.2,51.1a1,1,0,0,1-.8-.5,1.4,1.4,0,0,1,0-.9l6.5-11.3L83.2,24.6a1.7,1.7,0,0,1,0-1,1.2,1.2,0,0,1,.8-.4h3.4a1.1,1.1,0,0,1,.9.5l5.3,10,5.5-10a1,1,0,0,1,.8-.5h3a.9.9,0,0,1,.8.4.9.9,0,0,1,0,1l-14.6,26a1,1,0,0,1-.8.5Z" transform="translate(-5.3 -2.7)"/><path class="cls-2" d="M115.1,41.8c-3.2,0-5.6-.8-7.5-2.6a9.4,9.4,0,0,1-2.8-6.8,9,9,0,0,1,3-7,11.1,11.1,0,0,1,7.9-2.7,11.4,11.4,0,0,1,4.9,1,1.1,1.1,0,0,1,.5.9v2.3a.9.9,0,0,1-.4.8h-1a7.8,7.8,0,0,0-4.1-1.2,6,6,0,0,0-4.4,1.6,5.6,5.6,0,0,0-1.7,4.1,5.7,5.7,0,0,0,1.8,4.4,6.4,6.4,0,0,0,4.2,1.4,7.9,7.9,0,0,0,4.2-1.2h1a.9.9,0,0,1,.4.8v2.2a1.1,1.1,0,0,1-.5.9A12.8,12.8,0,0,1,115.1,41.8Z" transform="translate(-5.3 -2.7)"/><path class="cls-2" d="M137,41.3a1,1,0,0,1-.9-1V30.6a4.2,4.2,0,0,0-.9-3.2,3.7,3.7,0,0,0-2.6-.9,4.4,4.4,0,0,0-3.4,1.5c-.6.8-.9,2.2-.9,4.5v7.8a1,1,0,0,1-1,1h-2.7a1,1,0,0,1-.9-1V10.9a.9.9,0,0,1,.9-.9h2.7a.9.9,0,0,1,1,.9V24.7a7.6,7.6,0,0,1,5.3-2c3.4,0,5.1,1.5,5.8,2.5a8,8,0,0,1,1.3,5V40.3a1.1,1.1,0,0,1-1,1Z" transform="translate(-5.3 -2.7)"/><path class="cls-2" d="M153.1,41.8c-6.2,0-9.5-4.8-9.5-9.6s3.9-9.5,9.6-9.5a7.6,7.6,0,0,1,5.9,2.6V24.1a.9.9,0,0,1,.9-.9h2.7a1,1,0,0,1,1,.9V40.3a1.1,1.1,0,0,1-1,1H160a1,1,0,0,1-.9-1v-.9A8.1,8.1,0,0,1,153.1,41.8Zm.7-15.3a5.4,5.4,0,0,0-5.5,5.8,5.4,5.4,0,0,0,5.5,5.7,5.3,5.3,0,0,0,5.5-5.7C159.3,28,156.3,26.5,153.8,26.5Z" transform="translate(-5.3 -2.7)"/><path class="cls-2" d="M180.9,41.3a1,1,0,0,1-.9-1V31.2c0-4.3-1.8-4.7-3.7-4.7s-4.1.5-4.1,6.1v7.7a1.1,1.1,0,0,1-1,1h-2.7a1,1,0,0,1-.9-1V24.1a.9.9,0,0,1,.9-.9h2.7a1,1,0,0,1,1,.9v.8a7,7,0,0,1,5.3-2.2c2.6,0,4.5.8,5.8,2.5s1.3,2.1,1.3,5V40.3a1.1,1.1,0,0,1-1,1Z" transform="translate(-5.3 -2.7)"/><path class="cls-2" d="M197.8,41.8c-3.3,0-5.6-.8-7.5-2.6a9,9,0,0,1-2.8-6.8,9,9,0,0,1,3-7,11.1,11.1,0,0,1,7.9-2.7,11.7,11.7,0,0,1,4.9,1,1.1,1.1,0,0,1,.5.9v2.3a1,1,0,0,1-.5.8h-.9a7.9,7.9,0,0,0-4.2-1.2,6.3,6.3,0,0,0-4.4,1.6,5.6,5.6,0,0,0-1.6,4.1,6.1,6.1,0,0,0,1.7,4.4,6.6,6.6,0,0,0,4.2,1.4,8.2,8.2,0,0,0,4.3-1.2h.9a1,1,0,0,1,.5.8v2.2a1.1,1.1,0,0,1-.5.9A13.5,13.5,0,0,1,197.8,41.8Z" transform="translate(-5.3 -2.7)"/><path class="cls-2" d="M214.9,41.8a9.3,9.3,0,0,1-6.7-2.3,9.1,9.1,0,0,1-2.9-6.9,9.9,9.9,0,0,1,3.1-7.4,9.3,9.3,0,0,1,6.7-2.5,8.8,8.8,0,0,1,6.3,2.4c1.8,1.7,2.7,4,2.8,7.2a1.1,1.1,0,0,1-.3.7l-.7.2H210a5.6,5.6,0,0,0,1.7,3.7,5,5,0,0,0,3.5,1.1,4.6,4.6,0,0,0,3.1-.9,4.4,4.4,0,0,0,1.4-1.3,1.2,1.2,0,0,1,.8-.4h.4l2.2,1.2a1,1,0,0,1,.5.6,1,1,0,0,1-.2.7,8.7,8.7,0,0,1-2.7,2.4A11.6,11.6,0,0,1,214.9,41.8Zm.1-15.5a4.9,4.9,0,0,0-3.3,1.2,5.3,5.3,0,0,0-1.4,2.3h9.2a4.8,4.8,0,0,0-1.4-2.5A5.4,5.4,0,0,0,215,26.3Z" transform="translate(-5.3 -2.7)"/></svg>